<svg width="62" height="72" viewBox="0 0 62 72" fill="none" xmlns="http://www.w3.org/2000/svg">
<path d="M2.50064 69.5V2.5" stroke="black" stroke-width="5" stroke-linecap="round" stroke-linejoin="round"/>
<path d="M3.00064 10.5001C8.83397 7.66678 22.0006 2.70011 28.0006 5.50011C35.5006 9.00011 48.5006 14.0002 59.5006 5.50011V47.5C56.5006 51.3333 46.0006 56.7 28.0006 47.5C21.2006 44.3 8.50064 49.1667 3.00064 52" stroke="black" stroke-width="5" stroke-linecap="round" stroke-linejoin="round"/>
<path d="M20.5006 5.5V46" stroke="black" stroke-width="5" stroke-linejoin="round"/>
<path d="M1.49154 24.2127C0.228302 24.77 -0.343965 26.2458 0.213346 27.5091C0.770657 28.7723 2.2465 29.3446 3.50974 28.7873L1.49154 24.2127ZM26.5006 21L26.0662 23.462L26.5006 21ZM3.50974 28.7873C6.3741 27.5236 10.0991 25.8438 14.1467 24.6475C18.2127 23.4457 22.3646 22.8088 26.0662 23.462L26.9351 18.5381C22.1367 17.6913 17.1219 18.5543 12.7295 19.8525C8.3188 21.1562 4.29385 22.9764 1.49154 24.2127L3.50974 28.7873ZM26.0662 23.462C27.5455 23.723 29.2996 24.4172 31.6368 25.36C33.8776 26.264 36.5197 27.3342 39.4434 28.0836C45.4143 29.6141 52.5605 29.8062 60.7332 25.175L58.2681 20.8249C51.4408 24.6937 45.6716 24.5184 40.6849 23.2402C38.1298 22.5853 35.7824 21.6409 33.5074 20.7231C31.3287 19.8442 29.0404 18.9096 26.9351 18.5381L26.0662 23.462Z" fill="black"/>
</svg>
