<svg width="41" height="41" viewBox="0 0 41 41" fill="none" xmlns="http://www.w3.org/2000/svg">
<path d="M40.634 10.0182C40.4455 9.71769 40.1937 9.47204 39.9002 9.30233C39.6067 9.13261 39.2803 9.04389 38.949 9.04377H10.9324L8.56672 2.78097C8.25654 1.95622 7.73131 1.25164 7.0576 0.756545C6.3839 0.26145 5.59208 -0.00185632 4.78252 9.85146e-06H0V4.52189H4.78252L14.5075 30.2627C14.6632 30.6745 14.926 31.0263 15.2627 31.2738C15.5994 31.5212 15.995 31.6532 16.3996 31.6532H32.7991C33.654 31.6532 34.4186 31.0676 34.7199 30.1881L40.8698 12.1006C40.986 11.7583 41.0253 11.3901 40.9842 11.0274C40.9431 10.6647 40.823 10.3185 40.634 10.0182ZM31.3785 27.1313H17.7669L12.642 13.5657H35.9909L31.3785 27.1313Z" fill="#231F20"/>
<path d="M17.4245 40.6969C19.1228 40.6969 20.4994 39.1785 20.4994 37.3055C20.4994 35.4325 19.1228 33.9141 17.4245 33.9141C15.7263 33.9141 14.3496 35.4325 14.3496 37.3055C14.3496 39.1785 15.7263 40.6969 17.4245 40.6969Z" fill="#231F20"/>
<path d="M31.7742 40.6969C33.4724 40.6969 34.8491 39.1785 34.8491 37.3055C34.8491 35.4325 33.4724 33.9141 31.7742 33.9141C30.0759 33.9141 28.6992 35.4325 28.6992 37.3055C28.6992 39.1785 30.0759 40.6969 31.7742 40.6969Z" fill="#231F20"/>
</svg>
