<svg width="36" height="35" viewBox="0 0 36 35" fill="none" xmlns="http://www.w3.org/2000/svg">
<path d="M26.0342 2C28.0759 2.00283 30.0809 2.9014 31.5938 4.57812C33.1127 6.26175 33.9974 8.58456 34 11.0449C33.9993 16.4263 30.3507 21.5659 26.1777 25.6162C22.7183 28.9739 19.1882 31.3016 18 32.0469C16.8118 31.3016 13.2817 28.9739 9.82227 25.6162C5.64929 21.5659 2.0007 16.4263 2 11.0449C2.00262 8.58456 2.88728 6.26175 4.40625 4.57812C5.9189 2.90166 7.92347 2.00312 9.96484 2C12.6126 2.00018 14.9006 3.24697 16.3438 5.37695L18 7.82129L19.6562 5.37695C21.0992 3.24723 23.3868 2.00048 26.0342 2Z" stroke="#231F20" stroke-width="4"/>
</svg>
