<svg width="66" height="67" viewBox="0 0 66 67" fill="none" xmlns="http://www.w3.org/2000/svg">
<path d="M32.9745 25.1249C30.7883 25.1249 28.6917 26.0073 27.1458 27.5779C25.6 29.1485 24.7315 31.2787 24.7315 33.4999C24.7315 35.7211 25.6 37.8513 27.1458 39.4219C28.6917 40.9926 30.7883 41.8749 32.9745 41.8749C35.1606 41.8749 37.2573 40.9926 38.8031 39.4219C40.349 37.8513 41.2174 35.7211 41.2174 33.4999C41.2174 31.2787 40.349 29.1485 38.8031 27.5779C37.2573 26.0073 35.1606 25.1249 32.9745 25.1249ZM32.9745 19.5416C36.6181 19.5416 40.1124 21.0122 42.6889 23.6299C45.2653 26.2476 46.7127 29.7979 46.7127 33.4999C46.7127 37.2019 45.2653 40.7523 42.6889 43.3699C40.1124 45.9876 36.6181 47.4582 32.9745 47.4582C29.3309 47.4582 25.8365 45.9876 23.2601 43.3699C20.6837 40.7523 19.2363 37.2019 19.2363 33.4999C19.2363 29.7979 20.6837 26.2476 23.2601 23.6299C25.8365 21.0122 29.3309 19.5416 32.9745 19.5416ZM50.8342 18.8437C50.8342 19.7692 50.4723 20.6568 49.8282 21.3112C49.1841 21.9656 48.3105 22.3333 47.3996 22.3333C46.4887 22.3333 45.6151 21.9656 44.971 21.3112C44.3269 20.6568 43.965 19.7692 43.965 18.8437C43.965 17.9182 44.3269 17.0306 44.971 16.3762C45.6151 15.7217 46.4887 15.3541 47.3996 15.3541C48.3105 15.3541 49.1841 15.7217 49.8282 16.3762C50.4723 17.0306 50.8342 17.9182 50.8342 18.8437ZM32.9745 11.1666C26.1768 11.1666 25.0668 11.1861 21.9042 11.3285C19.7501 11.4318 18.3048 11.7249 16.964 12.2553C15.8419 12.6739 14.8274 13.3448 13.9965 14.2179C13.1365 15.0621 12.4753 16.0927 12.0622 17.2329C11.5401 18.6008 11.2516 20.0664 11.1527 22.2523C11.0098 25.3343 10.9906 26.4119 10.9906 33.4999C10.9906 40.4093 11.0098 41.5343 11.1499 44.7475C11.2516 46.9334 11.5401 48.4046 12.0594 49.7642C12.5265 50.9785 13.076 51.8523 13.9883 52.7792C14.9142 53.7172 15.7742 54.2783 16.9557 54.7417C18.313 55.2749 19.7583 55.5708 21.9015 55.6713C24.9349 55.8165 25.9955 55.8332 32.9717 55.8332C39.7721 55.8332 40.8794 55.8137 44.042 55.6713C46.1906 55.568 47.6359 55.2749 48.9795 54.7473C50.1006 54.3267 51.1146 53.656 51.947 52.7848C52.8729 51.8468 53.4252 50.973 53.8813 49.7697C54.4034 48.3962 54.6946 46.9278 54.7935 44.7448C54.9364 41.6655 54.9529 40.5852 54.9529 33.4999C54.9529 26.5933 54.9336 25.4655 54.7935 22.2523C54.6918 20.0692 54.4006 18.5952 53.8813 17.2329C53.4671 16.0939 52.8071 15.0637 51.9497 14.2179C51.1192 13.3437 50.1047 12.6718 48.9822 12.2525C47.6359 11.7221 46.1906 11.429 44.042 11.3285C41.0113 11.1833 39.9507 11.1666 32.9717 11.1666M32.9717 5.58325C40.4371 5.58325 41.3685 5.61117 44.3003 5.75075C47.2238 5.89034 49.2185 6.35654 50.9688 7.04888C52.7822 7.75796 54.3099 8.71829 55.8376 10.2677C57.2348 11.6632 58.3159 13.3513 59.0057 15.2145C59.6843 16.9928 60.1459 19.0195 60.2833 21.9927C60.4124 24.9686 60.4482 25.915 60.4482 33.4999C60.4482 41.0849 60.4207 42.0312 60.2833 45.0072C60.1459 47.9803 59.6843 50.0042 59.0057 51.7853C58.3178 53.6495 57.2364 55.338 55.8376 56.7322C54.4637 58.1512 52.8023 59.2496 50.9688 59.951C49.2185 60.6405 47.2238 61.1095 44.3003 61.2491C41.3685 61.3803 40.4371 61.4166 32.9717 61.4166C25.5064 61.4166 24.5749 61.3887 21.6432 61.2491C18.7197 61.1095 16.7277 60.6405 14.9747 59.951C13.1401 59.2516 11.4784 58.153 10.1058 56.7322C8.70847 55.3368 7.62735 53.6486 6.9378 51.7853C6.25638 50.007 5.79753 47.9803 5.66014 45.0072C5.52826 42.0312 5.49529 41.0849 5.49529 33.4999C5.49529 25.915 5.52276 24.9686 5.66014 21.9927C5.79753 19.0195 6.25638 16.9956 6.9378 15.2145C7.62536 13.3502 8.70674 11.6616 10.1058 10.2677C11.4787 8.84736 13.1404 7.74883 14.9747 7.04888C16.7249 6.35654 18.7169 5.89034 21.6432 5.75075C24.5777 5.61954 25.5091 5.58325 32.9745 5.58325" fill="white"/>
</svg>
