<svg width="62" height="61" viewBox="0 0 62 61" fill="none" xmlns="http://www.w3.org/2000/svg">
<path d="M31 0C13.888 0 0 13.664 0 30.5C0 47.336 13.888 61 31 61C48.112 61 62 47.336 62 30.5C62 13.664 48.112 0 31 0ZM45.384 20.74C44.919 25.559 42.904 37.271 41.881 42.6695C41.447 44.957 40.579 45.7195 39.773 45.811C37.975 45.9635 36.611 44.652 34.875 43.5235C32.147 41.7545 30.597 40.6565 27.962 38.9485C24.893 36.966 26.877 35.868 28.644 34.099C29.109 33.6415 37.045 26.535 37.2 25.8945C37.2215 25.7975 37.2187 25.6968 37.1917 25.6011C37.1646 25.5054 37.1143 25.4177 37.045 25.3455C36.859 25.193 36.611 25.254 36.394 25.2845C36.115 25.3455 31.775 28.182 23.312 33.794C22.072 34.6175 20.956 35.0445 19.964 35.014C18.848 34.9835 16.74 34.404 15.159 33.8855C13.206 33.2755 11.687 32.94 11.811 31.8725C11.873 31.3235 12.648 30.7745 14.105 30.195C23.157 26.3215 29.171 23.7595 32.178 22.5395C40.796 19.0015 42.563 18.3915 43.741 18.3915C43.989 18.3915 44.578 18.4525 44.95 18.7575C45.26 19.0015 45.353 19.337 45.384 19.581C45.353 19.764 45.415 20.313 45.384 20.74Z" fill="white"/>
</svg>
