<svg width="63" height="49" viewBox="0 0 63 49" fill="none" xmlns="http://www.w3.org/2000/svg">
<path d="M1.5 12.5519C1.5 23.7706 1.5 38.9056 1.5 41.8247C1.5 45.4091 4.76923 47.1017 6.40385 47.5C22.1731 47.5 53.5962 47.5 56.5962 47.5C59.5962 47.5 61.4038 43.7165 61.5 41.8247C61.5 34.1815 61.5 20.8 61.5 12.5519M1.5 12.5519C1.5 9.99472 1.5 7.64099 1.5 5.68182C1.78846 4.28788 3.17308 1.5 6.40385 1.5C9.63462 1.5 41.7885 1.5 57.4615 1.5C58.8077 1.69913 61.5 2.81429 61.5 5.68182C61.5 6.52987 61.5 9.08828 61.5 12.5519M1.5 12.5519L25.4423 31.9675C26.3077 32.5649 29.7692 34.3571 31.5 34.3571C33.8077 34.3571 36.6923 32.8636 38.1346 31.6688L61.5 12.5519" stroke="black" stroke-width="3" stroke-linejoin="round"/>
</svg>
