<svg width="28" height="40" viewBox="0 0 28 40" fill="none" xmlns="http://www.w3.org/2000/svg">
<path d="M14 17.8674C12.3386 17.8674 10.7146 17.3435 9.33321 16.3618C7.95184 15.3802 6.87519 13.9849 6.23941 12.3525C5.60364 10.7201 5.43729 8.9238 5.7614 7.19083C6.08552 5.45786 6.88554 3.86603 8.0603 2.61663C9.23506 1.36722 10.7318 0.516372 12.3612 0.171663C13.9907 -0.173046 15.6796 0.00387108 17.2145 0.680042C18.7494 1.35621 20.0613 2.50127 20.9843 3.97041C21.9073 5.43955 22.4 7.16679 22.4 8.93371C22.3975 11.3023 21.5117 13.5731 19.937 15.2479C18.3622 16.9227 16.2271 17.8648 14 17.8674ZM14 3.97054C13.077 3.97054 12.1748 4.26162 11.4073 4.80698C10.6399 5.35234 10.0418 6.12749 9.68856 7.03439C9.33535 7.94129 9.24294 8.93922 9.423 9.90198C9.60307 10.8647 10.0475 11.7491 10.7002 12.4432C11.3528 13.1373 12.1843 13.61 13.0896 13.8015C13.9948 13.993 14.9331 13.8947 15.7859 13.5191C16.6386 13.1434 17.3674 12.5073 17.8802 11.6911C18.393 10.8749 18.6667 9.91533 18.6667 8.93371C18.6667 7.61739 18.175 6.35499 17.2998 5.42422C16.4247 4.49344 15.2377 3.97054 14 3.97054ZM28 37.7201V36.7275C28 32.7785 26.525 28.9913 23.8995 26.199C21.274 23.4067 17.713 21.838 14 21.838C10.287 21.838 6.72601 23.4067 4.10051 26.199C1.475 28.9913 0 32.7785 0 36.7275L0 37.7201C0 38.2466 0.196666 38.7516 0.546734 39.1239C0.896802 39.4962 1.3716 39.7054 1.86667 39.7054C2.36174 39.7054 2.83653 39.4962 3.1866 39.1239C3.53667 38.7516 3.73333 38.2466 3.73333 37.7201V36.7275C3.73333 33.8316 4.815 31.0543 6.74037 29.0066C8.66574 26.9589 11.2771 25.8085 14 25.8085C16.7229 25.8085 19.3343 26.9589 21.2596 29.0066C23.185 31.0543 24.2667 33.8316 24.2667 36.7275V37.7201C24.2667 38.2466 24.4633 38.7516 24.8134 39.1239C25.1635 39.4962 25.6383 39.7054 26.1333 39.7054C26.6284 39.7054 27.1032 39.4962 27.4533 39.1239C27.8033 38.7516 28 38.2466 28 37.7201Z" fill="#231F20"/>
</svg>
