<svg width="29" height="29" viewBox="0 0 29 29" fill="none" xmlns="http://www.w3.org/2000/svg">
<path fill-rule="evenodd" clip-rule="evenodd" d="M22.1151 12.6366C22.1151 13.8814 21.8699 15.1139 21.3936 16.2639C20.9172 17.4139 20.2191 18.4587 19.3389 19.3389C18.4587 20.2191 17.4139 20.9172 16.2639 21.3936C15.1139 21.8699 13.8814 22.1151 12.6366 22.1151C11.3919 22.1151 10.1594 21.8699 9.00941 21.3936C7.85944 20.9172 6.81455 20.2191 5.93439 19.3389C5.05424 18.4587 4.35607 17.4139 3.87973 16.2639C3.40339 15.1139 3.15823 13.8814 3.15823 12.6366C3.15823 10.1228 4.15684 7.71194 5.93439 5.93439C7.71194 4.15684 10.1228 3.15823 12.6366 3.15823C15.1505 3.15823 17.5614 4.15684 19.3389 5.93439C21.1164 7.71194 22.1151 10.1228 22.1151 12.6366ZM20.3879 22.6206C17.8485 24.592 14.6532 25.5216 11.4525 25.2201C8.25179 24.9185 5.28633 23.4085 3.15981 20.9974C1.03328 18.5864 -0.0944475 15.4555 0.00620093 12.2422C0.106849 9.02895 1.42831 5.97481 3.70156 3.70156C5.97481 1.42831 9.02895 0.106849 12.2422 0.00620093C15.4555 -0.0944475 18.5864 1.03328 20.9974 3.15981C23.4085 5.28633 24.9185 8.25179 25.2201 11.4525C25.5216 14.6532 24.592 17.8485 22.6206 20.3879L28.4972 26.2645C28.6524 26.4091 28.7769 26.5835 28.8632 26.7773C28.9496 26.9711 28.996 27.1803 28.9998 27.3924C29.0035 27.6045 28.9645 27.8152 28.885 28.0119C28.8056 28.2086 28.6873 28.3873 28.5373 28.5373C28.3873 28.6873 28.2086 28.8056 28.0119 28.885C27.8152 28.9645 27.6045 29.0035 27.3924 28.9998C27.1803 28.996 26.9711 28.9496 26.7773 28.8632C26.5835 28.7769 26.4091 28.6524 26.2645 28.4972L20.3879 22.6206Z" fill="#231F20"/>
</svg>
