<svg width="63" height="51" viewBox="0 0 63 51" fill="none" xmlns="http://www.w3.org/2000/svg">
<path d="M25.0899 35.7804L41.367 25.0463L25.0899 14.3122V35.7804ZM61.3448 7.76435C61.7526 9.44603 62.0348 11.7002 62.223 14.5626C62.4425 17.4251 62.5366 19.8939 62.5366 22.0407L62.7248 25.0463C62.7248 32.8822 62.223 38.6429 61.3448 42.3282C60.5608 45.5485 58.7418 47.6237 55.9192 48.5182C54.4451 48.9834 51.748 49.3054 47.6081 49.5201C43.531 49.7706 39.7989 49.8779 36.349 49.8779L31.3624 50.0926C18.2216 50.0926 10.036 49.5201 6.80564 48.5182C3.98302 47.6237 2.16401 45.5485 1.37995 42.3282C0.972234 40.6466 0.689973 38.3924 0.501799 35.53C0.282262 32.6675 0.188174 30.1987 0.188174 28.0519L0 25.0463C0 17.2104 0.501799 11.4497 1.37995 7.76435C2.16401 4.54411 3.98302 2.46885 6.80564 1.57434C8.27967 1.10919 10.9768 0.787169 15.1167 0.572486C19.1938 0.322023 22.9259 0.214682 26.3758 0.214682L31.3624 0C44.5032 0 52.6888 0.572487 55.9192 1.57434C58.7418 2.46885 60.5608 4.54411 61.3448 7.76435Z" fill="white"/>
</svg>
